<svg id="Layer_1" enable-background="new 0 0 512.001 512.001" height="512" viewBox="0 0 512.001 512.001" width="512" xmlns="http://www.w3.org/2000/svg"><g><g clip-rule="evenodd" fill-rule="evenodd"><path d="m56.001 10h400c11 0 20 9 20 20v452.002c0 11-9 20-20 20h-400c-11 0-20-9-20-20v-452.002c0-11.001 9-20 20-20z" fill="#ccf5fc"/><path d="m101.001 171.003h310c11.046 0 20-8.954 20-20v-34.001c0-11.046-8.954-20-20-20h-310c-11.046 0-20 8.954-20 20v34.001c0 11.046 8.954 20 20 20z" fill="#33d6f5"/><path d="m416.001 210.005h-88.005v125.998 125.997h88.005c11 0 20-9 20-20v-211.996c0-11-9-19.999-20-19.999z" fill="#ffbecb"/><path d="m201.999 210.005h125.997v125.998h-125.997z" fill="#fff"/><path d="m201.999 336.002h125.997v125.998h-125.997z" fill="#fff"/><path d="m201.999 462v-125.998h-125.998v105.998c0 11 9 20 20 20z" fill="#fff"/><path d="m76.001 336.002h125.998v-125.997h-105.998c-11 0-20 9-20 20z" fill="#fff"/></g><g><path d="m76.001 70.002c-5.523 0-10.004-4.477-10.004-10s4.474-10 9.997-10h.007c5.523 0 10 4.477 10 10s-4.477 10-10 10z" fill="#99ebfa"/></g><g><path d="m116.001 70.002c-5.523 0-10.004-4.477-10.004-10s4.474-10 9.997-10h.007c5.523 0 10 4.477 10 10s-4.477 10-10 10z" fill="#99ebfa"/></g><g><path d="m156.001 70.002c-5.523 0-10.004-4.477-10.004-10s4.474-10 9.997-10h.007c5.523 0 10 4.477 10 10s-4.477 10-10 10z" fill="#99ebfa"/></g><g><path d="m153.135 297.146c-2.559 0-5.119-.976-7.071-2.929l-28.284-28.284c-3.905-3.905-3.905-10.237 0-14.143s10.237-3.905 14.143 0l28.284 28.284c3.905 3.905 3.905 10.237 0 14.143-1.954 1.952-4.513 2.929-7.072 2.929z" fill="#99ebfa"/></g><g><path d="m124.85 297.146c-2.559 0-5.118-.976-7.071-2.929-3.906-3.905-3.906-10.237 0-14.143l28.284-28.284c3.905-3.905 10.237-3.906 14.142 0 3.906 3.905 3.906 10.237 0 14.142l-28.284 28.285c-1.952 1.953-4.512 2.929-7.071 2.929z" fill="#99ebfa"/></g><g><path d="m250.848 297.146c-2.559 0-5.118-.976-7.071-2.929-3.906-3.905-3.906-10.237 0-14.143l28.284-28.284c3.905-3.905 10.237-3.906 14.142 0 3.906 3.905 3.906 10.237 0 14.142l-28.284 28.285c-1.952 1.953-4.512 2.929-7.071 2.929z" fill="#99ebfa"/></g><g><path d="m158.992 409.001h-40c-5.523 0-10-4.477-10-10s4.477-10 10-10h40c5.523 0 10 4.477 10 10s-4.477 10-10 10z" fill="#99ebfa"/></g><g><path d="m284.99 409.001h-40c-5.523 0-10-4.477-10-10s4.477-10 10-10h40c5.523 0 10 4.477 10 10s-4.477 10-10 10z" fill="#99ebfa"/></g><g><path d="m396.991 326.001h-30c-5.523 0-10-4.477-10-10s4.477-10 10-10h30c5.523 0 10 4.477 10 10s-4.477 10-10 10z" fill="#fff"/></g><g><path d="m396.991 366.003h-30c-5.523 0-10-4.477-10-10s4.477-10 10-10h30c5.523 0 10 4.477 10 10s-4.477 10-10 10z" fill="#fff"/></g><g><path d="m264.99 429.001c-5.523 0-10-4.477-10-10v-40c0-5.523 4.477-10 10-10s10 4.477 10 10v40c0 5.523-4.477 10-10 10z" fill="#99ebfa"/></g><path d="m456.001 0h-400c-16.542 0-30 13.458-30 30v452.002c0 16.542 13.458 30 30 30h400c16.542 0 30-13.458 30-30v-452.002c0-16.542-13.458-30-30-30zm10 482.001c0 5.514-4.486 10-10 10h-400c-5.514 0-10-4.486-10-10v-452.001c0-5.514 4.486-10 10-10h400c5.514 0 10 4.486 10 10z" fill="#8481e2"/><path d="m416.001 200.005h-320c-16.542 0-30 13.458-30 30v211.995c0 16.542 13.458 30 30 30h320c16.542 0 30-13.458 30-30v-211.996c0-16.542-13.458-29.999-30-29.999zm-98.005 251.995h-105.997v-105.998h105.998v105.998zm0-125.998h-105.997v-105.997h105.998v105.997zm-221.995-105.997h95.998v105.998h-105.998v-95.998c0-5.514 4.486-10 10-10zm-10 221.995v-95.998h105.998v105.998h-95.998c-5.514 0-10-4.486-10-10zm340 0c0 5.514-4.486 10-10 10h-78.004v-231.995h78.004c5.514 0 10 4.486 10 10z" fill="#8481e2"/></g></svg>